<?xml version="1.0" standalone="no"?>
<!DOCTYPE svg PUBLIC "-//W3C//DTD SVG 20010904//EN"
 "http://www.w3.org/TR/2001/REC-SVG-20010904/DTD/svg10.dtd">
<svg version="1.0" xmlns="http://www.w3.org/2000/svg"
 width="260.000000pt" height="260.000000pt" viewBox="0 0 260.000000 260.000000"
 preserveAspectRatio="xMidYMid meet">
<metadata>
Created by potrace 1.14, written by Peter Selinger 2001-2017
</metadata>
<g transform="translate(0.000000,260.000000) scale(0.100000,-0.100000)"
fill="#000000" stroke="none">
<path d="M1042 2287 c-103 -77 -113 -159 -29 -235 64 -58 77 -72 77 -84 0 -13
-155 -173 -361 -374 -63 -61 -148 -148 -189 -194 l-75 -84 -3 -475 c-2 -380 0
-476 10 -482 15 -10 1658 -12 1682 -3 14 5 16 56 16 473 -1 347 -4 471 -13
487 -24 44 -277 309 -375 396 -30 25 -97 92 -149 148 -107 113 -109 123 -41
170 53 35 78 79 78 132 0 41 -5 52 -42 91 -74 78 -147 72 -236 -21 -81 -83
-75 -82 -135 -20 -74 77 -87 85 -137 93 -38 5 -50 3 -78 -18z m341 -589 c34
-28 141 -130 237 -225 96 -96 192 -191 213 -210 l37 -36 -2 -291 -3 -291 -550
0 -550 0 -3 291 -2 292 40 38 c33 32 316 307 460 447 19 19 41 35 48 36 8 0
41 -22 75 -51z"/>
</g>
</svg>
